<svg width="520" height="140" viewBox="0 0 520 140" xmlns="http://www.w3.org/2000/svg">
  <defs>
    <linearGradient id="g" x1="0" y1="0" x2="1" y2="1">
      <stop offset="0%" stop-color="#7C3AED"/>
      <stop offset="55%" stop-color="#2563EB"/>
      <stop offset="100%" stop-color="#06B6D4"/>
    </linearGradient>
  </defs>

  <!-- Mark: interlocking A (compute) over a chip grid -->
  <g transform="translate(20,20)">
    <rect x="0" y="0" width="100" height="100" rx="18" fill="url(#g)"/>
    <!-- stylized A -->
    <path d="M50 22 L74 82 L62 82 L57 68 L43 68 L38 82 L26 82 Z M46 58 L54 58 L50 44 Z"
          fill="#ffffff"/>
    <!-- chip pins -->
    <g fill="#ffffff" opacity="0.85">
      <rect x="8"  y="-6" width="6" height="10" rx="2"/>
      <rect x="30" y="-6" width="6" height="10" rx="2"/>
      <rect x="52" y="-6" width="6" height="10" rx="2"/>
      <rect x="74" y="-6" width="6" height="10" rx="2"/>
      <rect x="8"  y="96" width="6" height="10" rx="2"/>
      <rect x="30" y="96" width="6" height="10" rx="2"/>
      <rect x="52" y="96" width="6" height="10" rx="2"/>
      <rect x="74" y="96" width="6" height="10" rx="2"/>
    </g>
  </g>

  <!-- Wordmark -->
  <text x="140" y="72" font-family="Helvetica, Arial, sans-serif" font-size="52"
        font-weight="800" fill="#E2E8F0" letter-spacing="2">AXIM</text>
  <text x="142" y="102" font-family="Helvetica, Arial, sans-serif" font-size="16"
        font-weight="500" fill="#94A3B8" letter-spacing="1.5">CUDA-FREE COMPUTE + GRAPHICS RUNTIME</text>
</svg>
